<svg xmlns="http://www.w3.org/2000/svg" viewBox="0 0 121 150">
  <path fill-rule="evenodd" d="M53.904594.013721C37.935184 9.958745 19.661984 12.540856.318021 11.939517L0 65.367079c2.135843 38.60147 29.171184 64.57326 56.289754 85.22968l-.31802-19.71731c-17.62274-16.21682-37.36148-30.05314-41.9788-60.90106l.47703-43.250886c29.32928.512789 49.28594-4.797978 39.43463-26.713782zM68.047134 0c15.96941 9.945025 34.24261 12.527136 53.58658 11.925797l.31802 53.427562c-2.13585 38.60147-29.17119 64.57326-56.28976 85.22968l.31802-19.71731c17.62274-16.21682 37.36148-30.05314 41.9788-60.90106l-.47703-43.250886C78.152484 27.226572 58.195824 21.915805 68.047134 0z"/>
  <path fill="#4d4d4d" fill-rule="evenodd" d="M48.339224 35.155064c-9.30279 2.173515-17.93933 1.472115-26.39576-1.431095l.15901 33.39223c1.66764 24.99558 15.6873 40.30983 32.91519 53.10954zm25.27328-.01372c9.30279 2.173515 17.93933 1.472115 26.39576-1.431095l-.15901 33.39223c-1.66764 24.99558-15.6873 40.30983-32.91519 53.10954z"/>
</svg>
